<mxfile host="65bd71144e">
    <diagram id="ajyhcuH4buO7rpLuhrhc" name="PÃ¡gina-1">
        <mxGraphModel dx="521" dy="457" grid="1" gridSize="10" guides="1" tooltips="1" connect="1" arrows="1" fold="1" page="1" pageScale="1" pageWidth="827" pageHeight="1169" math="0" shadow="0">
            <root>
                <mxCell id="0"/>
                <mxCell id="1" parent="0"/>
                <mxCell id="4" value="" style="edgeStyle=none;html=1;" edge="1" parent="1" source="2" target="3">
                    <mxGeometry relative="1" as="geometry"/>
                </mxCell>
                <mxCell id="2" value="&lt;font style=&quot;font-size: 18px;&quot;&gt;INICIO&lt;/font&gt;" style="ellipse;whiteSpace=wrap;html=1;fillColor=#000099;strokeColor=#CCCC00;" vertex="1" parent="1">
                    <mxGeometry x="390" y="80" width="150" height="90" as="geometry"/>
                </mxCell>
                <mxCell id="6" value="" style="edgeStyle=none;html=1;" edge="1" parent="1" source="3" target="5">
                    <mxGeometry relative="1" as="geometry"/>
                </mxCell>
                <mxCell id="3" value="&lt;font style=&quot;font-size: 18px;&quot;&gt;n&lt;/font&gt;" style="shape=parallelogram;perimeter=parallelogramPerimeter;whiteSpace=wrap;html=1;fixedSize=1;fillColor=#CC0000;" vertex="1" parent="1">
                    <mxGeometry x="405" y="265" width="120" height="60" as="geometry"/>
                </mxCell>
                <mxCell id="8" value="" style="edgeStyle=none;html=1;" edge="1" parent="1" source="5" target="7">
                    <mxGeometry relative="1" as="geometry"/>
                </mxCell>
                <mxCell id="5" value="&lt;font style=&quot;font-size: 18px;&quot;&gt;s=(n*(n+1))/2&lt;/font&gt;" style="whiteSpace=wrap;html=1;fillColor=#009900;" vertex="1" parent="1">
                    <mxGeometry x="405" y="405" width="120" height="60" as="geometry"/>
                </mxCell>
                <mxCell id="10" value="" style="edgeStyle=none;html=1;" edge="1" parent="1" source="7" target="9">
                    <mxGeometry relative="1" as="geometry"/>
                </mxCell>
                <mxCell id="7" value="&lt;font style=&quot;font-size: 18px;&quot;&gt;s&lt;/font&gt;" style="whiteSpace=wrap;html=1;fillColor=#999900;" vertex="1" parent="1">
                    <mxGeometry x="405" y="545" width="120" height="60" as="geometry"/>
                </mxCell>
                <mxCell id="9" value="&lt;font style=&quot;font-size: 18px;&quot;&gt;FIN&lt;/font&gt;" style="ellipse;whiteSpace=wrap;html=1;fillColor=#00994D;" vertex="1" parent="1">
                    <mxGeometry x="407.5" y="675" width="115" height="80" as="geometry"/>
                </mxCell>
            </root>
        </mxGraphModel>
    </diagram>
</mxfile>